<svg
  xmlns="http://www.w3.org/2000/svg"
  width="24"
  height="24"
  viewBox="0 0 24 24"
  fill="none"
  stroke="currentColor"
  stroke-width="2"
  stroke-linecap="round"
  stroke-linejoin="round"
>
  <path d="M17 7a2 2 0 0 1 4 0v7a8 8 0 0 1-8 8h-2a8 8 0 0 1-8-8 4.83 4.83 0 0 1 1.414-3.414l2.707-2.707A3 3 0 0 1 9.243 7H12a2 2 0 1 1 0 4h-1.172a2 2 0 0 0-1.414.586l-.27.27a1 1 0 0 0 .391 1.656 3 3 0 0 1 3 3" />
  <path d="M17 8a2 2 0 0 1-3.112 1.662" />
  <path d="M21 9a2 2 0 0 1-4 0V5a2 2 0 1 0-4 0" />
  <path d="M9 5a2 2 0 1 0-4 0v5" />
  <path d="M9 7V4a2 2 0 1 1 4 0v3.268" />
</svg>
